<?xml version="1.0" encoding="UTF-8"?>
<svg width="728px" height="652px" viewBox="0 0 728 652" version="1.1" xmlns="http://www.w3.org/2000/svg" xmlns:xlink="http://www.w3.org/1999/xlink">
    <title>Swift Events</title>
    <defs>
        <linearGradient x1="50%" y1="0%" x2="50%" y2="100%" id="linearGradient-1">
            <stop stop-color="#FFB22E" offset="0%"></stop>
            <stop stop-color="#FD2003" offset="100%"></stop>
        </linearGradient>
        <path d="M402.049836,491.328622 C407.349299,496.643641 413.889043,501.717003 421.675004,506.548708 C429.50331,511.380411 438.161387,515.680552 447.646019,519.449132 C457.168705,523.217711 467.028819,526.188986 477.214752,528.36296 C487.42326,530.536933 497.50572,531.623701 507.445198,531.623265 C518.359135,531.622786 528.066508,530.800912 536.5574,529.157644 C545.035069,527.514376 552.805826,525.315454 559.86611,522.560877 C566.908424,519.806302 573.710968,516.737654 580.271997,513.354933 C552.110591,487.359759 528.463104,460.6879 509.213231,433.339361 C490.632863,405.990793 475.405366,378.303835 463.427038,350.278491 C478.254582,368.253053 494.293267,385.430275 511.537537,401.810156 C529.13053,418.190021 547.973477,433.724224 568.056691,448.412764 C554.424928,429.278458 541.906602,410.361545 530.472137,391.662027 C519.322666,372.962496 509.711124,353.513931 501.618562,333.316332 C506.275624,340.274274 512.277588,348.343528 519.657551,357.524093 C527.126712,366.704654 535.496507,376.271738 544.786435,386.225347 C554.191561,396.17895 563.924625,405.939257 573.985003,415.506267 C584.159751,425.073273 594.050453,433.818843 603.63615,441.742979 C613.308276,449.66711 622.050226,456.093349 629.828517,461.021695 C632.268591,456.189541 634.926518,449.376239 637.796636,440.581788 C640.65,431.787338 642.563885,422.99293 643.550857,414.198562 C645.372958,397.962806 645.109141,383.200915 642.799748,369.912888 C640.544149,356.624859 637.353211,344.762325 633.232072,334.325286 C629.171578,323.888243 625.165949,314.852492 621.200792,307.218033 C637.381225,319.007516 650.719706,332.101777 661.185668,346.500816 C671.838851,360.899847 680.133929,375.564744 686.016355,390.49551 C692.013267,405.426271 696.054432,419.777271 698.087924,433.548515 C700.16667,447.319756 700.798224,459.472325 699.948644,470.006224 C699.574517,474.645005 698.812072,480.564296 697.658222,487.764096 C696.500257,494.963896 694.331709,502.13958 691.141869,509.291149 C698.082947,518.954937 703.229921,528.232241 706.553603,537.123061 C709.912007,546.013879 712.036856,554.034983 712.90926,561.186373 C713.7912,568.337763 714.073703,574.232848 713.749616,578.871627 C713.574068,581.384299 713.242223,583.631215 712.753584,585.612375 C712.264284,587.593536 711.764594,589.357255 711.254566,590.903532 C710.50213,593.029666 709.683895,593.94779 708.800958,593.657906 C707.918269,593.368022 707.217922,592.643246 706.700226,591.483577 C705.466449,589.164249 703.444541,586.047668 700.640849,582.133833 C697.848715,578.219998 693.719272,574.692785 688.256755,571.552195 C682.81144,568.411604 675.585114,566.841506 666.564874,566.841902 C660.121845,566.842184 654.066019,567.688058 648.390688,569.379524 C642.706418,571.070989 636.969327,573.173181 631.176159,575.6861 C625.369708,578.199019 619.073222,580.736119 612.28477,583.297402 C605.480463,585.858685 597.763108,587.985124 589.134449,589.676719 C580.492258,591.368315 570.497346,592.214362 559.159864,592.214859 C541.401153,592.215638 524.941785,590.04194 509.830848,585.693761 C494.785359,581.345579 481.217901,575.523559 469.149756,568.227698 C457.175435,560.931833 446.680687,552.862776 437.664631,544.020527 C428.741226,535.178273 421.302349,526.190993 415.332012,517.058687 C409.433006,507.926378 405.013896,499.349689 402.049836,491.328622 Z" id="path-2"></path>
        <linearGradient x1="35.1730895%" y1="3.19951923%" x2="66.4544754%" y2="97.1706731%" id="linearGradient-3">
            <stop stop-color="#1B5CA3" offset="0%"></stop>
            <stop stop-color="#051F46" offset="100%"></stop>
        </linearGradient>
        <path d="M325.197497,-0.197496553 C487.142926,-0.197496553 621.440012,118.179136 646.279737,273.123386 L646.246475,273.113836 C647.579713,281.395994 648.600185,289.782779 649.295389,298.261691 C642.339625,293.68387 635.043471,289.584815 627.452923,286.00765 C623.840407,262.857607 617.517592,240.60527 608.8192,219.585337 L610.152747,218.939869 C581.52569,232.884628 550.801638,244.06179 517.980541,252.471335 C512.298173,253.927292 506.589387,255.289588 500.854182,256.558221 C499.533255,272.797632 492.991498,286.823568 481.229113,298.635883 C467.978437,311.942805 452.077627,318.596266 433.526682,318.596266 C414.681277,318.596266 398.559622,311.942805 385.161717,298.635883 C376.487108,290.020182 370.620731,280.226835 367.562585,269.255842 C357.248055,268.999858 347.010832,268.481384 336.850942,267.700405 C334.280793,286.19445 332.805607,304.907694 332.805607,323.839976 C332.805607,351.046826 336.009475,378.185443 341.259075,405.255827 C349.490347,406.595252 356.724449,410.397448 362.96187,416.661346 C370.897552,424.630713 374.865393,434.220227 374.865393,445.429888 C374.865393,456.98985 370.897552,466.754515 362.96187,474.723882 C361.853153,475.837306 360.712944,476.87295 359.541245,477.830814 C374.215701,523.810879 401.029121,567.990479 428.34572,610.368884 C430.338025,609.702538 432.385673,608.980663 434.488662,608.203259 C436.591652,607.425855 438.639299,606.592922 440.631605,605.70446 L440.813603,606.043392 C447.100827,603.685816 453.285486,601.118406 459.359053,598.349689 C466.612342,602.786426 474.215718,606.717745 482.113429,610.093098 C435.592554,635.779286 382.101866,650.394993 325.197497,650.394993 C145.595879,650.394993 5.68434189e-14,504.799115 5.68434189e-14,325.197497 C5.68434189e-14,247.053376 27.5626651,175.346861 73.4965457,119.2694 C75.4322136,116.853619 77.3958766,114.457284 79.3940143,112.08626 C139.014869,43.3034424 227.026089,-0.197496553 325.197497,-0.197496553 Z M195.054691,457.467561 C195.830839,484.383309 198.938653,510.91797 204.377357,537.070791 C208.898474,558.811257 215.030319,580.155926 222.772893,601.104797 C258.122318,616.236533 297.052544,624.609769 337.938444,624.609769 C342.861981,624.609769 347.757157,624.488346 352.621143,624.248331 L356.987916,623.88224 L361.361431,623.499692 L363.495124,623.303465 L365.579407,623.103576 C371.386654,622.533778 377.262716,621.842728 381.267642,621.030425 L378.422815,616.271234 C361.650176,588.177314 344.637093,558.889666 333.149915,528.40829 L329.893627,519.756253 C325.331404,507.600306 320.795573,495.295803 316.645521,482.842745 C312.544421,480.885687 308.754241,478.179353 305.275565,474.723882 C300.458617,469.939068 297.087718,464.507082 295.16287,458.427925 C261.424615,460.837706 228.055135,460.710493 195.054691,457.467561 Z M54.382273,405.789746 L54.5608732,406.4871 C72.5887119,474.858495 114.704451,533.450742 171.282324,572.638079 C167.647787,558.873637 164.621748,545.020829 162.206887,531.073675 C157.668857,504.864054 155.178475,478.432317 154.735741,451.778465 L154.682213,450.703457 C119.188989,441.260868 85.7556761,426.444544 54.382273,405.789746 Z M245.19912,253.024961 C243.722163,255.224992 242.00087,257.322896 240.035398,259.318402 C233.460283,265.993988 225.714037,269.895179 216.79666,271.021976 C214.869436,277.249768 213.054619,283.528148 211.350427,289.856315 C199.053971,335.516679 193.321547,382.366812 194.153156,430.406712 C226.842433,436.483147 260.017943,439.203785 293.680796,439.189369 C294.62394,432.658426 297.092967,426.743747 301.087325,421.445076 C297.301258,396.658488 296.799467,371.506085 296.765962,346.069203 L296.764989,340.527845 L296.778817,331.206588 C296.782923,328.717691 296.786278,326.226241 296.786278,323.732313 C296.786278,303.55383 298.286692,283.57936 300.898688,263.795101 C289.60392,262.203858 278.408082,260.275454 267.311462,258.010484 C259.853172,256.488146 252.482392,254.826305 245.19912,253.024961 Z M86.0876818,181.674917 L84.1457687,184.968707 C64.5198332,218.8719 51.4923571,257.071933 46.819759,297.812386 C45.7128429,308.626618 45.1589286,319.634613 45.1589286,330.836612 C45.1589286,339.276509 45.4733599,347.606279 46.1022226,355.825922 C79.4149442,384.366664 115.378449,405.436499 153.994114,419.690188 C154.205302,374.037831 159.876157,329.37175 171.006237,285.69165 C173.543617,275.73368 176.340137,265.88579 179.395797,256.147979 C173.316131,248.776327 170.276731,240.143001 170.276731,230.248941 C170.276731,229.594674 170.290022,228.946064 170.316603,228.303113 C167.487514,227.114023 164.674047,225.898481 161.876389,224.657737 C134.875802,212.683141 110.102,198.703955 87.5549824,182.720179 L86.0876818,181.674917 Z M416.554287,57.1541463 L414.209443,60.9101541 L412.55465,63.5722466 C389.955409,100.009927 368.098563,138.733374 356.295696,179.742589 L355.377367,182.954151 C350.093067,201.557163 345.358804,220.399087 341.60726,239.479923 C349.569898,240.069512 357.595843,240.477918 365.684715,240.706336 C367.62621,226.099278 374.118282,213.25101 385.161717,202.160698 C390.136049,197.16525 395.485841,193.09715 401.211092,189.956396 C400.976387,184.953988 400.834613,179.938935 400.785491,174.911578 C400.342757,149.368304 402.279721,124.324789 406.596383,99.7810332 C409.132482,85.3612334 412.451784,71.1522711 416.554287,57.1541463 Z M364.150365,39.682521 L363.933657,39.8788044 C329.959735,70.553878 300.68197,105.069848 276.100361,143.426716 C263.537049,163.030367 252.375654,183.264945 242.616176,204.130449 C247.580483,210.044165 250.55388,216.814819 251.536826,224.442157 C269.133572,229.125642 287.079373,232.810807 305.374146,235.497855 C309.032487,215.504722 313.653242,195.703058 318.823937,176.077684 L322.19092,163.313451 L323.87645,156.975757 L325.180924,152.117572 L326.074783,148.818679 C336.384088,110.928216 347.794078,74.6525516 367.371963,39.9916855 C366.301623,39.8791856 365.226831,39.777943 364.150365,39.682521 Z M456.464378,63.4856963 L456.799232,62.3810618 C452.51118,76.3628513 449.058935,90.6619607 446.442496,105.27839 C442.347201,128.15628 440.520921,151.256285 440.963656,174.578405 C440.991242,177.180235 441.046328,179.777754 441.128916,182.370961 C456.458469,183.98446 469.825238,190.581168 481.229113,202.160698 C488.734359,209.781548 494.114101,218.232492 497.36834,227.513529 C501.313121,226.573005 505.241654,225.581264 509.154165,224.539883 C540.034751,216.32049 568.79435,205.329438 595.432963,191.566727 C564.616303,134.999945 515.70047,89.7141739 456.464378,63.4856963 Z M306.429907,40.2089621 L304.436462,40.4203107 C223.15409,49.6711641 151.964218,92.1761755 104.804917,153.997273 C128.107929,172.106538 154.229259,187.58501 183.173661,200.438386 C189.460099,194.518319 196.735716,190.978381 205.001002,189.818501 C213.857506,170.659816 223.83277,151.974796 234.926044,133.764694 C255.1151,100.623462 278.466604,69.9502251 304.980556,41.7449823 L306.429907,40.2089621 Z" id="path-4"></path>
    </defs>
    <g id="Page-1" stroke="none" stroke-width="1" fill="none" fill-rule="evenodd">
        <g id="Swift-Events" transform="translate(-187, -186)">
            <g transform="translate(187, 187)">
                <g id="Swift-Bird" fill-rule="nonzero" transform="translate(557.9647, 450.4641) rotate(-6) translate(-557.9647, -450.4641)">
                    <use fill="#000000" xlink:href="#path-2"></use>
                    <use fill="url(#linearGradient-1)" xlink:href="#path-2"></use>
                </g>
                <g id="Network-Globe">
                    <use fill="#D8D8D8" xlink:href="#path-4"></use>
                    <use fill="url(#linearGradient-3)" xlink:href="#path-4"></use>
                </g>
            </g>
        </g>
    </g>
</svg>