<?xml version="1.0" encoding="UTF-8"?>
<svg width="788px" height="704px" viewBox="0 0 788 704" version="1.1" xmlns="http://www.w3.org/2000/svg" xmlns:xlink="http://www.w3.org/1999/xlink">
    <title>Group</title>
    <defs>
        <linearGradient x1="50%" y1="0%" x2="50%" y2="100%" id="linearGradient-1">
            <stop stop-color="#FFB22E" offset="0%"></stop>
            <stop stop-color="#FD2003" offset="100%"></stop>
        </linearGradient>
        <path d="M435.181794,532.157691 C440.917709,537.913864 447.996153,543.408222 456.423553,548.640763 C464.896787,553.873299 474.268224,558.53006 484.534381,562.611046 C494.84173,566.692028 505.514373,569.909453 516.539747,572.263322 C527.589557,574.617188 538.503002,575.793544 549.261755,575.792392 C561.075288,575.791127 571.582861,574.900317 580.773739,573.119962 C589.950303,571.339608 598.361725,568.957491 606.004152,565.97361 C613.627126,562.989731 620.990589,559.665706 628.09265,556.001535 C597.61178,527.848874 572.016941,498.963008 551.182242,469.34395 C531.072232,439.724814 514.591482,409.738948 501.627739,379.386365 C517.676235,398.853056 535.035755,417.456088 553.700287,435.195462 C572.742286,452.934796 593.137327,469.758132 614.874923,485.665472 C600.120851,464.942617 586.571979,444.455137 574.196292,424.203037 C562.129089,403.950903 551.726633,382.887408 542.968411,361.012552 C548.008862,368.548171 554.504994,377.287326 562.492633,387.230013 C570.576822,397.172689 579.635854,407.533937 589.690836,418.313754 C599.870512,429.093557 610.405169,439.663984 621.294133,450.025036 C632.306895,460.386074 643.012252,469.857461 653.387522,478.439197 C663.856344,487.020923 673.318421,493.980389 681.737511,499.3176 C684.379043,494.083873 687.256518,486.70441 690.363811,477.179211 C693.452969,467.654013 695.52521,458.128924 696.594135,448.603943 C698.567536,431.019362 698.282982,415.031223 695.784144,400.639522 C693.343533,386.247814 689.890388,373.40008 685.430273,362.09632 C681.0358,350.792553 676.70062,341.006479 672.409151,332.738098 C689.922473,345.505824 704.359501,359.68691 715.687149,375.281358 C727.21745,390.875784 736.195259,406.758323 742.56153,422.928981 C749.051725,439.099626 753.425007,454.642485 755.62517,469.557562 C757.874319,484.472635 758.557098,497.634672 757.63677,509.043677 C757.231488,514.067826 756.405792,520.478882 755.156342,528.276847 C753.902439,536.074811 751.554655,543.846726 748.101399,551.592592 C755.613943,562.058674 761.184529,572.106289 764.781562,581.735439 C768.41618,591.364586 770.715623,600.051856 771.659447,607.797251 C772.613594,615.542645 772.918979,621.927413 772.567861,626.951556 C772.377672,629.672967 772.01832,632.106556 771.489269,634.252325 C770.959503,636.398093 770.418504,638.308358 769.866331,639.983119 C769.051729,642.285921 768.165987,643.28037 767.210292,642.966466 C766.254867,642.652562 765.496842,641.867627 764.936554,640.61166 C763.60124,638.09975 761.412886,634.724414 758.378364,630.48565 C755.356352,626.246884 750.886775,622.426949 744.974218,619.025844 C739.08028,615.624737 731.258422,613.924706 721.494676,613.925751 C714.520572,613.926498 707.965528,614.843052 701.822286,616.675415 C695.669365,618.507779 689.459243,620.784992 683.188394,623.507054 C676.903167,626.229118 670.087511,628.977405 662.739337,631.751917 C655.374001,634.526431 647.020387,636.83004 637.680383,638.662746 C628.325732,640.495453 617.506919,641.412464 605.234929,641.413778 C586.012433,641.415836 568.196528,639.062694 551.840348,634.354347 C535.555012,629.645992 520.869637,623.341265 507.807257,615.440164 C494.846436,607.539053 483.487195,598.800419 473.728584,589.224263 C464.07026,579.648096 456.018838,569.914753 449.557012,560.024237 C443.172397,550.133713 438.389623,540.844863 435.181794,532.157691 Z" id="path-2"></path>
        <linearGradient x1="35.1640809%" y1="3.19951923%" x2="66.4644728%" y2="97.1706731%" id="linearGradient-3">
            <stop stop-color="#1B5CA3" offset="0%"></stop>
            <stop stop-color="#051F46" offset="100%"></stop>
        </linearGradient>
        <path d="M352,1.13686838e-13 C536.586818,1.13686838e-13 687.988957,142.080504 702.80983,322.844927 C695.282141,317.88988 687.384494,313.452817 679.168172,309.580682 C655.485751,157.820788 524.198959,41.7014666 365.791046,41.7014666 C190.609606,41.7014666 48.5969896,183.714083 48.5969896,358.895523 C48.5969896,534.076963 190.609606,676.089579 365.791046,676.089579 C412.671063,676.089579 457.175721,665.919455 497.219074,647.66515 C505.070513,652.467795 513.300801,656.723227 521.849697,660.376836 C471.493838,688.179648 413.594439,704 352,704 C157.595768,704 0,546.404232 0,352 C0,157.595768 157.595768,1.13686838e-13 352,1.13686838e-13 Z" id="path-4"></path>
        <circle id="path-5" cx="352" cy="352" r="352"></circle>
        <linearGradient x1="35.3873447%" y1="3.19951923%" x2="66.2167012%" y2="97.1706731%" id="linearGradient-7">
            <stop stop-color="#1B5CA3" offset="0%"></stop>
            <stop stop-color="#051F46" offset="100%"></stop>
        </linearGradient>
    </defs>
    <g id="Page-1" stroke="none" stroke-width="1" fill="none" fill-rule="evenodd">
        <g id="Swift-Events" transform="translate(-117, -160)">
            <g id="Group" transform="translate(117, 160)">
                <g id="Path" fill-rule="nonzero" transform="translate(603.9453, 487.8805) rotate(-6) translate(-603.9453, -487.8805)">
                    <use fill="#000000" xlink:href="#path-2"></use>
                    <use fill="url(#linearGradient-1)" xlink:href="#path-2"></use>
                </g>
                <g id="Combined-Shape">
                    <use fill="#D8D8D8" xlink:href="#path-4"></use>
                    <use fill="url(#linearGradient-3)" xlink:href="#path-4"></use>
                </g>
                <g id="Shape">
                    <mask id="mask-6" fill="white">
                        <use xlink:href="#path-5"></use>
                    </mask>
                    <use id="Mask" fill-opacity="0" fill="#D8D8D8" xlink:href="#path-5"></use>
                    <path d="M366.606671,726.636656 C316.048496,726.636656 268.60528,717.079881 224.277022,697.966333 C179.948764,678.852784 140.951878,652.406364 107.286364,618.627073 C73.6208494,584.847782 47.3234101,545.779207 28.3940461,501.421348 C9.46468202,457.063489 0,409.520039 0,358.790997 C0,308.061955 9.46468202,260.458399 28.3940461,215.980329 C47.3234101,171.502259 73.6208494,132.433684 107.286364,98.7746044 C140.951878,65.1155245 179.888861,38.72921 224.097313,19.6156611 C268.305764,0.502112099 315.689077,-9.05466238 366.247252,-9.05466238 C411.773571,-9.05466238 455.023574,-1.1207364 495.99726,14.7471156 C536.970947,30.6149675 573.811323,52.7337915 606.518389,81.1035874 C639.225455,109.473383 666.24173,142.77183 687.567217,180.998928 C708.892703,219.226026 722.670404,260.698821 728.900322,305.417313 C719.076221,301.810983 710.150667,298.986024 702.123658,296.942437 C694.096649,294.89885 685.770125,293.877057 677.144086,293.877057 C669.476495,255.409537 655.279472,219.947292 634.553017,187.490322 C613.826561,155.033352 588.247958,127.264611 557.817209,104.184099 C527.386459,81.1035874 493.601138,64.2740475 456.461247,53.6954795 C428.666231,97.6927054 400.157825,144.875523 385.661286,195.243932 C371.164748,245.612341 360.235164,297.603598 360.235164,351.217704 C360.235164,404.350966 371.524166,457.243806 386.739541,509.896223 C401.954916,562.548641 432.500026,613.037261 463.649613,661.362083 C465.806123,660.640817 468.022536,659.859446 470.298851,659.017969 C472.575167,658.176492 474.79158,657.274909 476.94809,656.313221 C480.781885,663.525881 485.39442,670.678436 490.785695,677.770885 C496.176969,684.863334 501.747953,691.414833 507.498646,697.425383 C505.342136,698.627493 502.946014,699.709392 500.31028,700.67108 C497.674546,701.632768 495.038811,702.594456 492.403077,703.556144 C472.275652,711.009226 451.6091,716.719248 430.40342,720.686211 C409.19774,724.653174 387.932157,726.636656 366.606671,726.636656 Z M354.506424,677.590568 C363.264923,677.590568 371.850558,677.229935 380.263327,676.508669 C388.676096,675.787403 404.393873,674.585293 412.691399,672.902339 C393.560992,640.926213 373.7456,607.507555 360.60785,572.646365 C347.470101,537.785175 333.877853,501.781981 327.193735,464.636782 C320.509617,427.491583 321.247153,389.568687 321.247153,351.101168 C321.247153,296.525374 331.38717,243.328332 345.101137,191.276969 C358.815103,139.225606 371.562449,89.8789904 398.068434,43.2371225 C383.778251,41.0733245 369.142338,39.9914255 354.160694,39.9914255 C311.981604,39.9914255 272.453113,48.225879 235.57522,64.694786 C198.697328,81.1636929 166.256307,104.063888 138.252157,133.395372 C110.248007,162.726856 88.3517588,196.626358 72.563411,235.093878 C56.7750633,273.561398 48.8808894,314.793771 48.8808894,358.790997 C48.8808894,402.788223 56.7750633,444.020596 72.563411,482.488116 C88.3517588,520.955635 110.248007,554.795032 138.252157,584.006305 C166.256307,613.217578 198.75495,636.117773 235.748086,652.706891 C272.741222,669.296009 312.327334,677.590568 354.506424,677.590568 Z M78.9848953,186.710629 L98.4399845,155.073846 C137.350163,188.751712 184.308727,214.945608 239.315675,233.655534 C294.322624,252.36546 352.62999,261.635377 414.237772,261.465287 C461.717454,261.295197 507.344271,255.384561 551.118222,243.73338 C594.892172,232.082199 634.728784,215.285789 670.628055,193.344148 L690.083145,221.919308 C650.941358,244.541309 607.80433,261.890513 560.67206,273.966919 C513.53979,286.043326 464.728361,292.166574 414.237772,292.336665 C371.390254,292.336665 329.758679,288.211977 289.343048,279.9626 C248.927416,271.713224 210.885768,259.67934 175.218105,243.860948 C139.550441,228.042556 107.472705,208.99245 78.9848953,186.710629 Z M197.320649,659.558918 C187.736161,631.910388 180.487892,603.901225 175.575842,575.531429 C170.663792,547.161633 167.968154,518.551415 167.48893,489.700775 C164.373971,428.152744 170.24447,368.22756 185.100427,309.925225 C199.956383,251.622891 223.019058,196.806675 254.28845,145.476578 C285.557843,94.1464809 323.835892,48.2859845 369.122599,7.89508858 L414.768723,25.9267385 C369.002793,63.4325705 330.365325,106.768636 298.85632,155.934935 C267.347316,205.101234 243.985126,257.933968 228.769751,314.433138 C213.554376,370.932308 207.623974,429.114432 210.978545,488.979509 C211.457769,520.474791 214.872243,551.489229 221.221966,582.022823 C227.57169,612.556417 236.856663,642.368745 249.076885,671.459807 L197.320649,659.558918 Z M363.512467,474.573135 L368.131476,491.888284 C305.444937,500.238705 243.91315,501.453757 183.536115,492.453602 C123.15908,479.124499 68.1158994,452.047655 18.4065738,409.361843 L27.9745192,365.701633 C75.2643644,412.154552 127.833076,443.469216 185.680654,461.412348 C243.528232,475.064161 302.805503,478.453676 363.512467,474.573135 Z M501.029116,320.563899 L459.696011,333.90732 C442.923157,287.02503 434.297118,239.060841 433.817894,190.014753 C433.338669,162.366223 435.435276,135.258643 440.107714,108.692012 C444.780152,82.1253809 451.908615,56.2199105 461.493103,30.9756005 L503.185626,42.8764895 C494.319975,65.9570015 487.670736,89.8789904 483.23791,114.642456 C478.805085,139.405922 476.828284,164.40981 477.307508,189.65412 C477.547121,212.253788 479.70363,234.552929 483.777038,256.551542 C487.850445,278.550154 493.601138,299.887607 501.029116,320.563899 Z M228.627709,294.418006 C216.395865,294.418006 205.951751,290.071443 197.295369,281.378316 C188.638987,272.685189 184.310796,262.196742 184.310796,249.912975 C184.310796,237.629208 188.638987,227.188007 197.295369,218.58937 C205.951751,209.990734 216.395865,205.691415 228.627709,205.691415 C240.859554,205.691415 251.256622,209.990734 259.818913,218.58937 C268.381204,227.188007 272.66235,237.629208 272.66235,249.912975 C272.66235,262.196742 268.381204,272.685189 259.818913,281.378316 C251.256622,290.071443 240.859554,294.418006 228.627709,294.418006 Z M469.257585,345.541812 C448.858958,345.541812 431.40857,338.339978 416.906421,323.93631 C402.404272,309.532643 395.153197,292.088201 395.153197,271.602986 C395.153197,251.437851 402.404272,234.07343 416.906421,219.509722 C431.40857,204.946014 448.858958,197.66416 469.257585,197.66416 C489.337484,197.66416 506.548825,204.946014 520.89161,219.509722 C535.234395,234.07343 542.405787,251.437851 542.405787,271.602986 C542.405787,292.088201 535.234395,309.532643 520.89161,323.93631 C506.548825,338.339978 489.337484,345.541812 469.257585,345.541812 Z M361.868884,527.476629 C349.597835,527.476629 339.120247,523.163531 330.436119,514.537335 C321.751992,505.911138 317.409929,495.341678 317.409929,482.828953 C317.409929,470.695402 321.751992,460.315529 330.436119,451.689332 C339.120247,443.063136 349.597835,438.750038 361.868884,438.750038 C373.951148,438.750038 384.287147,443.063136 392.876881,451.689332 C401.466616,460.315529 405.761483,470.695402 405.761483,482.828953 C405.761483,495.341678 401.466616,505.911138 392.876881,514.537335 C384.287147,523.163531 373.951148,527.476629 361.868884,527.476629 Z" fill="url(#linearGradient-7)" fill-rule="nonzero" mask="url(#mask-6)"></path>
                </g>
            </g>
        </g>
    </g>
</svg>