<?xml version="1.0" encoding="UTF-8"?>
<svg width="24px" height="24px" viewBox="0 0 24 24" version="1.1" xmlns="http://www.w3.org/2000/svg" xmlns:xlink="http://www.w3.org/1999/xlink">
    <title>Frame 3</title>
    <g id="Frame-3" stroke="none" fill="none" fill-rule="evenodd" stroke-width="1">
        <g id="􀫊" transform="translate(1, 2)" fill="#F05137">
            <path d="M0,12.4023438 C0.442708333,12.7604167 0.963541667,13.1022135 1.5625,13.4277344 C2.16145833,13.7532552 2.80598958,14.0429688 3.49609375,14.296875 C4.18619792,14.5507812 4.88606771,14.7509766 5.59570312,14.8974609 C6.30533854,15.0439453 6.9921875,15.1171875 7.65625,15.1171875 C8.38541667,15.1171875 9.0250651,15.061849 9.57519531,14.9511719 C10.1253255,14.8404948 10.6233724,14.6923828 11.0693359,14.5068359 C11.5152995,14.3212891 11.9433594,14.1145833 12.3535156,13.8867188 C10.1855469,12.1354167 8.26497396,10.3385417 6.59179687,8.49609375 C4.91861979,6.65364583 3.43424479,4.78841146 2.13867188,2.90039062 C3.49283854,4.11132812 4.89746094,5.26855469 6.35253906,6.37207031 C7.80761719,7.47558594 9.31640625,8.52213542 10.8789062,9.51171875 C9.72005208,8.22265625 8.61979167,6.94824219 7.578125,5.68847656 C6.53645833,4.42871094 5.57617188,3.11848958 4.69726562,1.7578125 C5.13997396,2.2265625 5.69335937,2.77018229 6.35742188,3.38867188 C7.02148438,4.00716146 7.74902344,4.65169271 8.54003906,5.32226562 C9.33105469,5.99283854 10.1350911,6.65039062 10.9521484,7.29492188 C11.7692057,7.93945312 12.5504557,8.52864583 13.2958984,9.0625 C14.0413411,9.59635417 14.703776,10.0292969 15.2832031,10.3613281 C15.4134115,10.0358073 15.5436198,9.57682292 15.6738281,8.984375 C15.8040365,8.39192708 15.8691406,7.79947917 15.8691406,7.20703125 C15.8691406,6.11328125 15.7307943,5.1188151 15.4541016,4.22363281 C15.1774089,3.32845052 14.8404948,2.52929688 14.4433594,1.82617188 C14.046224,1.12304688 13.6621094,0.514322917 13.2910156,0 C14.6126302,0.794270833 15.7177734,1.67643229 16.6064453,2.64648438 C17.4951172,3.61653646 18.2014974,4.60449219 18.7255859,5.61035156 C19.2496745,6.61621094 19.6240234,7.58300781 19.8486328,8.51074219 C20.0732422,9.43847656 20.1855469,10.2571615 20.1855469,10.9667969 C20.1855469,11.2792969 20.1660156,11.6780599 20.1269531,12.1630859 C20.0878906,12.648112 19.9804688,13.1315104 19.8046875,13.6132812 C20.3255208,14.2643229 20.719401,14.8893229 20.9863281,15.4882812 C21.2532552,16.0872396 21.4322917,16.6276042 21.5234375,17.109375 C21.6145833,17.5911458 21.6601562,17.9882812 21.6601562,18.3007812 C21.6601562,18.4700521 21.648763,18.6214193 21.6259766,18.7548828 C21.6031901,18.8883464 21.578776,19.0071615 21.5527344,19.1113281 C21.5136719,19.2545573 21.4648438,19.3164062 21.40625,19.296875 C21.3476562,19.2773438 21.2988281,19.2285156 21.2597656,19.1503906 C21.1686198,18.9941406 21.0221354,18.7841797 20.8203125,18.5205078 C20.6184896,18.2568359 20.3304036,18.0192057 19.9560547,17.8076172 C19.5817057,17.5960286 19.0983073,17.4902344 18.5058594,17.4902344 C18.0826823,17.4902344 17.6904297,17.5472005 17.3291016,17.6611328 C16.9677734,17.7750651 16.6064453,17.9166667 16.2451172,18.0859375 C15.8837891,18.2552083 15.4915365,18.4261068 15.0683594,18.5986328 C14.6451823,18.7711589 14.1601562,18.914388 13.6132812,19.0283203 C13.0664062,19.1422526 12.4251302,19.1992188 11.6894531,19.1992188 C10.5371094,19.1992188 9.44661458,19.0527344 8.41796875,18.7597656 C7.38932292,18.4667969 6.43554687,18.0745443 5.55664062,17.5830078 C4.67773438,17.0914714 3.88020833,16.5478516 3.1640625,15.9521484 C2.44791667,15.3564453 1.82291667,14.7509766 1.2890625,14.1357422 C0.755208333,13.5205078 0.325520833,12.9427083 0,12.4023438 Z" id="Path" fill-rule="nonzero"></path>
        </g>
    </g>
</svg>